<?xml version="1.0" encoding="utf-8"?>
<!-- Generator: Adobe Illustrator 25.2.1, SVG Export Plug-In . SVG Version: 6.00 Build 0)  -->
<svg version="1.1" id="Layer_1" xmlns="http://www.w3.org/2000/svg" xmlns:xlink="http://www.w3.org/1999/xlink" x="0px" y="0px"
	 viewBox="0 0 749 498" style="enable-background:new 0 0 749 498;" xml:space="preserve">
<style type="text/css">
	.st0{fill:#DB3831;}
	.st1{fill:#F2F2F2;}
	.st2{fill:#CCCCCC;}
	.st3{fill:#D7201A;}
</style>
	<g id="_x23_db3831ff">
		<path class="st0" d="M231.9,57.9c44.6-15.6,92-21.6,139.1-22c47.5,0,95.4,6.1,140.4,21.7c19.8,7.2,39.2,16.1,56.1,28.9
			c11.7,9,22.4,20.2,28,34.1c3.3,8.3,3.7,17.4,4.1,26.2c-3.6,14-11.7,26.6-22,36.6c-7.2,6.2-14.8,12.2-22.9,17.2
			c-36.1,21.2-77.4,31.9-118.7,37.4c-17.2,2.4-34.6,3.1-51.9,4.2c-7.7,0-15.3-0.1-23,0c-20.6-1.1-41.2-2.3-61.7-5.5
			c-28.8-4.4-57.3-11.6-84.1-23c-14.9-6.9-29.7-14.2-42.2-24.9c-13.8-10.1-23.1-25-28.6-41c0.5-7.6,0.3-15.4,2.6-22.8
			c4.2-14.6,14.6-26.5,26.1-35.9C190.5,75.1,211,65.6,231.9,57.9z"/>
	</g>
	<g id="_x23_f2f2f2ff">
		<path class="st1" d="M86.7,188.8c17.5-10.8,36.2-19.6,55.6-26.5c-3.5,20.8-6.4,41.8-8.7,62.8c-0.7,6.5-2.8,13.1-1.4,19.6
			c2.2,11,8.2,21.1,16.3,28.9c7.8,7.4,15.8,14.6,25.3,19.8c4.1,2.2,8.1,4.6,12.1,6.8c9.1,4.7,18.7,8.1,28.2,11.8
			c13.1,4.7,26.7,7.9,40,11.9c15.2,3.2,30.6,5.7,45.9,8.1c15.2,1.2,30.3,2.8,45.6,3.7c9.8,1,19.6,0.5,29.3,0.7
			c5.7,0.1,11.3-0.5,17-0.8c23.9-0.1,47.6-2.9,71.2-6.3c14.7-3.2,29.5-5.9,44-9.8c10.7-3.7,21.6-6.7,32.1-11
			c11.3-4.2,22-9.8,32.4-15.7c10.6-7.5,21.9-14.7,29.6-25.4c7.1-9.7,12.6-21.8,10.6-34.1c-2-12.6-4.1-25.3-5.1-38
			c-0.4-4.6-1.4-9-2.2-13.5c-1.3-6.4-1.7-13-2.9-19.4c11.3,3.9,22.3,8.7,32.9,14.1c6.8,3.5,13.8,6.6,20.3,10.7
			c11.6,7.5,23.4,15,32.8,25.2c6.5,6.2,12.9,12.9,17,21c5.4,8.4,8.3,18,10.5,27.6c0.2,7.8-0.2,15.9-2.8,23.3
			c-2.8,7.5-5.9,15-10.8,21.4c-8.6,12.3-19.8,22.5-31.9,31.2c-14.2,11-30.9,18.1-46.9,26.1c-15.3,6.4-31,12.1-46.8,17.2
			c-13.5,3.8-26.9,7.5-40.6,10.5c-7.9,2-16.1,2.9-24,4.9c-16.7,2.7-33.4,6-50.3,7c-4.1,0.3-8.1,1-12.1,1.8
			c-6.7,1.4-13.6,0.7-20.3,1.6c-7.1,0.8-14.2,0-21.3,0.8c-8.1,1-16.3,0.5-24.5,0.6c-12,0-24,0-36,0c-13.6-0.8-27.2-1.9-40.8-2.4
			c-10-1.3-20-1.6-30-3c-6-0.8-12.1-0.5-18-2.1c-9.2-2.4-18.8-2.6-28-5.1c-24.8-4.7-49.5-10.1-73.3-18.6
			c-12.4-3.8-24.5-8.5-36.4-13.7c-11.3-5.6-22.8-10.8-33.4-17.7c-15.5-8.5-28.8-20.5-40.7-33.5c-6.9-9.1-12.6-19.3-15.5-30.5
			c-1.1-7.6-1.7-15.4-1.2-23.1c1.1-6,3.6-11.6,5.7-17.4C46.1,218,66,201.6,86.7,188.8z"/>
	</g>
	<g id="_x23_ccccccff">
		<path class="st2" d="M23.8,273.8c2.4-5.2,3.9-10.7,6-16c-0.5,7.7,0.1,15.4,1.2,23.1c2.9,11.1,8.6,21.3,15.5,30.5
			c11.9,13,25.1,25,40.7,33.5c10.6,6.9,22.1,12.1,33.4,17.7c11.9,5.2,24,9.9,36.4,13.7c23.8,8.5,48.5,13.9,73.3,18.6
			c9.2,2.5,18.8,2.7,28,5.1c5.9,1.6,12,1.3,18,2.1c9.9,1.4,20,1.8,30,3c13.6,0.5,27.2,1.5,40.8,2.4c12,0,24,0,36,0
			c8.2-0.1,16.4,0.4,24.5-0.6c7.1-0.9,14.2,0,21.3-0.8c6.8-0.8,13.6-0.2,20.3-1.6c4-0.8,8-1.5,12.1-1.8c16.9-1,33.6-4.3,50.3-7
			c7.9-2,16.1-2.9,24-4.9c13.7-3,27.2-6.7,40.6-10.5c15.8-5.1,31.4-10.8,46.8-17.2c16-8,32.7-15.1,46.9-26.1
			c12.1-8.7,23.3-18.9,31.9-31.2c4.9-6.4,7.9-13.9,10.8-21.4c2.7-7.4,3-15.5,2.8-23.3c5.4,13.2,9.8,26.8,14.7,40.2
			c2.3,4.1,3.1,8.8,4.8,13.1c1.2,3.4,3.8,6.1,4.3,9.8c0.8,5,2.8,9.8,3,15c0.8,13.8-2.4,28.2-10.3,39.7c-3.9,7.4-8.7,14.4-15,20
			c-4.2,3.8-7.8,8.2-12.3,11.7c-5.9,4.4-11.4,9.5-17.9,13.1c-5.4,2.8-9.9,6.9-15.4,9.6c-4.4,2.2-8.8,4.5-13.1,7
			c-3.3,1.9-7.3,2.4-10.6,4.4c-4.1,2.5-8.4,4.6-12.9,6.1c-9.3,4-18.9,7.3-28.4,10.6c-4.8,1.9-9.8,3.1-14.7,4.2
			c-1.5,0.4-2.9-0.1-4.3-0.3c0.2,0.5,0.6,1.4,0.7,1.8c-8,2.7-16.3,4.6-24.6,6.4c-9.8,3.7-20.5,4.2-30.5,7.3
			c-6.1,0.9-12.2,2.1-18.3,3.1c-10.6,2-21.4,2.8-32,4.7c-8.2,1.7-16.6,1.8-24.8,3.2c-7.9,0.6-15.7,1.7-23.6,1.5
			c-5.2,1-10.5,0.7-15.8,1.2c-6.4,1.2-12.8,0.5-19.2,0.7c-10.7,0.1-21.4-0.1-32,0.1c-5.3,0.6-10.7-0.3-16-0.1
			c-6.9-0.1-13.9,0.5-20.8-0.6c-5.6-0.9-11.2,0.1-16.8-0.8c-5.8-1-11.8-0.1-17.5-1.3c-8.3-0.6-16.5-2.4-24.9-2.4
			c-5.5-0.7-11.1-1-16.6-2.2c-9.9-1.7-20.1-2.5-29.8-5.1c-2.6-0.6-5.3-0.6-8-1.1c-7.9-1-15.4-4-23.4-4.8
			c-22.6-5.9-45.3-11.6-67.2-19.8c-8.1-3.2-16.4-5.8-24.2-9.7c-8.2-4.2-17-7.4-25-12c-10.1-6.1-20.4-12-29.8-19.2
			c-4.6-4.1-10.1-7.1-14.2-11.8c-6.2-6.8-13.2-13-18-21.1c-1.4-2.5-2.9-4.9-4.5-7.3c0.3-0.9,0.6-1.8,0.8-2.7
			c-0.5,0.1-1.4,0.4-1.9,0.6c-1.5-4.7-3.9-9.1-5.1-13.8c-1.4-9.1-3.7-18.6-0.8-27.7c1.7-4.8,1.8-10.1,4.3-14.6c2.6-4.8,3.7-10.1,6-15
			c2.4-5.5,3.4-11.6,6-17C21.5,281.9,22.1,277.6,23.8,273.8z"/>
	</g>
	<g id="_x23_d7201aff">
		<path class="st3" d="M376.4,336.9c-0.5,0-0.9,0-1.4,0c-2.1,0-4.1-0.1-6.2-0.1l-6.6,0c-6.2,0-11.4-0.1-16.6-0.7
			c-10.5-0.6-21.1-1.6-31.4-2.5c-4.7-0.4-9.4-0.8-14.2-1.2c-16.4-2.6-31.2-5-46-8.1c-4.5-1.3-9.1-2.6-13.6-3.9
			c-8.8-2.4-17.8-4.9-26.5-8c-2.3-0.9-4.6-1.8-6.9-2.7c-7.1-2.7-14.4-5.6-21.3-9.2c-1.9-1-3.7-2.1-5.6-3.1c-2.2-1.2-4.4-2.5-6.6-3.7
			c-9.7-5.3-17.8-12.7-25.4-19.9c-8.4-8.2-14.3-18.5-16.4-29.1c-1-4.8-0.2-9.7,0.6-14.4c0.3-1.8,0.6-3.6,0.8-5.4
			c2.2-20.6,5.1-41.7,8.7-62.8c0.4-2.1,0.7-4.3,0.9-6.4c0.3-2.6,0.6-5.3,1.3-7.9l0.4-1.7l0.6,1.7c5.9,17.4,15.7,31.5,28.4,40.8
			c12.9,11,28.5,18.6,42.1,24.9c24.7,10.6,52.1,18.1,83.9,23c20,3.2,40.5,4.3,60.4,5.4l1.2,0.1c3.2,0,6.4-0.1,9.6-0.1
			c2.2,0,4.5,0,6.7,0c2.2,0,4.5,0,6.7,0c3.4-0.2,6.8-0.4,10.2-0.6c13.7-0.8,27.8-1.7,41.6-3.6c47.9-6.4,86.7-18.7,118.5-37.4
			c7.2-4.4,14.4-9.9,22.8-17.1c11-10.7,18.6-23.3,21.9-36.3l0.5-1.8l0.5,1.8c0.8,2.8,1,5.6,1.3,8.4c0.2,2.3,0.5,4.7,1,7
			c0.6,3.2,1,6.4,1.4,9.5c0.4,3.3,0.8,6.6,1.5,9.9c0.2,0.8,0.3,1.6,0.5,2.4c0.7,3.6,1.5,7.4,1.8,11.2c1,12.4,3,25,5,37.1l0.1,0.9
			c2.2,13.5-4.6,26.2-10.7,34.5c-7,9.7-16.9,16.6-26.5,23.3c-1.1,0.7-2.1,1.5-3.2,2.2c-8.7,5-20.2,11.2-32.6,15.8
			c-6.9,2.8-14.1,5.1-21.1,7.4c-3.6,1.2-7.4,2.4-11.1,3.6c-10.4,2.8-21,5-31.3,7.2c-4.2,0.9-8.5,1.8-12.8,2.7
			c-22.5,3.2-46.7,6.2-71.3,6.3c-1.7,0.1-3.5,0.2-5.3,0.3C383.3,336.6,379.8,336.9,376.4,336.9z"/>
		<path class="st3" d="M599.5,146.9c1.4,5,1.1,10.3,2.3,15.3c1.2,6.4,1.6,13,2.9,19.4c0.9,4.5,1.9,9,2.2,13.5c1,12.8,3.1,25.4,5.1,38
			c2,12.3-3.5,24.4-10.6,34.1c-7.7,10.7-19,17.9-29.6,25.4c-10.4,6-21.1,11.6-32.4,15.7c-10.5,4.3-21.4,7.3-32.1,11
			c-14.5,4-29.4,6.6-44,9.8c-23.6,3.4-47.3,6.2-71.2,6.3c-5.7,0.3-11.3,1-17,0.8c-9.8-0.2-19.6,0.3-29.3-0.7
			c-15.2-0.9-30.4-2.4-45.6-3.7c-15.4-2.4-30.7-4.9-45.9-8.1c-13.3-4-26.9-7.2-40-11.9c-9.5-3.8-19.1-7.1-28.2-11.8
			c-4.1-2.2-8-4.6-12.1-6.8c-9.4-5.2-17.5-12.4-25.3-19.8c-8-7.8-14-17.8-16.3-28.9c-1.4-6.6,0.7-13.1,1.4-19.6
			c2.3-21,5.2-41.9,8.7-62.8c0.9-4.8,1.1-9.6,2.2-14.3c5.4,16,14.8,30.9,28.6,41c12.5,10.7,27.3,18.1,42.2,24.9
			c26.8,11.5,55.3,18.6,84.1,23c20.4,3.2,41.1,4.4,61.7,5.5c7.7-0.1,15.3,0,23,0c17.3-1.1,34.7-1.8,51.9-4.2
			c41.2-5.6,82.6-16.2,118.7-37.4c8.1-5,15.7-10.9,22.9-17.2C587.8,173.4,595.9,160.9,599.5,146.9z"/>
	</g>
</svg>
