<?xml version="1.0" encoding="utf-8"?>
<!-- Generator: Adobe Illustrator 25.2.1, SVG Export Plug-In . SVG Version: 6.00 Build 0)  -->
<svg version="1.1" xmlns="http://www.w3.org/2000/svg" xmlns:xlink="http://www.w3.org/1999/xlink" x="0px" y="0px"
	 viewBox="0 0 749 498" style="enable-background:new 0 0 749 498;" xml:space="preserve">
<style type="text/css">
	.st0{fill:#DB3831;}
	.st1{fill:#F2F2F2;}
	.st2{fill:#CCCCCC;}
	.st3{fill:#D7201A;}
</style>
<g id="Layer_1">
	<g id="_x23_db3831ff">
		<path class="st0" d="M341,3.1c7.1,0.5,14-1.3,21-1c11,0.3,22-0.6,32.9,1c9.7-0.2,19.4,0.9,29.1,1.8c31.6,3.3,63.1,9.3,93.1,20
			c10.5,4.3,21.4,8.1,31.3,13.7c14.9,8.3,29.4,18.9,38,33.9c4.7,7.8,5.8,17,6.8,25.9c-3.5,9.4-8.3,18.4-15,25.9
			c-5.9,6.6-13.2,11.6-20.4,16.7c-15.5,10-32.7,17.4-50.4,22.7c-24.8,8.9-51,13-77,16.2c-7.8,1-15.7,2.2-23.6,2.4
			c-8,0.2-16,1.3-24,1.1c-11.7-0.3-23.5,0.5-35.2-0.7c-18.6-0.9-37.1-2.5-55.4-5.7c-9.1-1.3-18.1-2.8-27-5.2
			c-29.2-6.4-58.2-16.1-83.1-33c-12.7-8.5-23.4-20.2-30-34c-1.2-3-1.1-6.3-1.4-9.5c-0.6-15.6,8.3-29.7,19.5-39.8
			c15.5-13.4,33.9-22.9,53.1-29.9c14.2-5,28.6-9.5,43.3-12.6C291.3,8.1,316.1,4.4,341,3.1z"/>
	</g>
	<g id="_x23_f2f2f2ff">
		<path class="st1" d="M67.3,202.3c22.6-17.5,48.4-30.3,75.1-40.1c-1,8.1-2.1,16.1-3,24.2c-1.8,11-3.8,22-4.7,33.1
			c-0.4,6.2-2,12.3-2.4,18.5c-0.5,9.2,3.4,17.9,8.3,25.5c6.3,9.1,15.1,16.2,23.6,23.3c13.3,9,27.8,16.4,42.8,22.2
			c14.6,5.9,29.9,9.5,45,13.9c6,1.8,12.2,2.4,18.3,3.7c9,2,18.1,2.9,27.2,4.6c17.8,1.8,35.7,3.3,53.5,4.4c8.3,0.4,16.7,0.1,25,0.2
			c8.4,0.2,16.6-1.2,25-1c14.7,0,29.2-2.1,43.8-3.5c10-1.4,20-2.6,29.9-4.9c10.3-2.4,20.7-4.2,30.8-7c19.2-6,38.6-11.9,56.3-21.7
			c9-4.2,16.8-10.3,24.8-16.2c10.9-8.4,20-19.6,24-33c2.2-7.5,1.2-15.5-0.2-23.1c-2-11.2-3.3-22.4-4.3-33.7
			c-1.7-9.8-3.7-19.6-4.3-29.6c11.3,4,22.3,8.8,32.9,14.2c6.4,3.3,13,6.2,19,10c12.7,8,25.4,16.3,35.6,27.4
			c13.6,12.2,22.3,29.3,26,47.1c0.2,6.3,0,12.7-1.5,18.9c-5.4,21-19.9,38.3-36.6,51.5c-8.3,6.5-16.8,12.9-26.3,17.7
			c-15.2,7.9-30.5,15.9-46.8,21.5c-28.3,11.1-57.9,18.6-87.7,24.2c-8.4,2.1-17.1,3-25.6,4.5c-9.2,1.6-18.4,2.8-27.7,3.4
			c-4.4,0.2-8.8,0.9-13.1,1.8c-7,1.4-14.1,1-21.1,1.7c-7.1,0.8-14.2,0.1-21.3,0.8c-8.8,1-17.7,0.4-26.5,0.6c-11,0-22,0-33,0
			c-9.7-0.5-19.4-1.3-29-1.8c-16.1-0.5-32-2.5-48-4.1c-4.6-0.2-9.1-0.7-13.5-1.8c-8.7-2.2-17.7-2.4-26.4-4.7
			c-25-4.8-50.1-10.2-74.1-18.7c-16.9-5.3-33.4-11.8-49.1-20c-10.3-4.7-19.7-10.9-29.4-16.7c-8.8-6.1-17.2-12.8-24.5-20.6
			c-9.1-8.2-15.8-18.8-20.3-30.1c-4.3-9.8-4.1-20.7-3.9-31.1c1-5.5,3.3-10.7,5.1-15.9C41.7,225.9,54.1,213.2,67.3,202.3z"/>
	</g>
	<g id="_x23_ccccccff">
		<path class="st2" d="M25,271.1c1.9-4.3,3-8.9,4.8-13.2c-0.3,10.4-0.4,21.4,3.9,31.1c4.5,11.3,11.2,21.9,20.3,30.1
			c7.3,7.8,15.7,14.5,24.5,20.6c9.7,5.7,19.1,12,29.4,16.7c15.7,8.2,32.2,14.7,49.1,20c24.1,8.6,49.1,14,74.1,18.7
			c8.6,2.3,17.7,2.5,26.4,4.7c4.4,1.1,9,1.6,13.5,1.8c16,1.5,31.9,3.6,48,4.1c9.7,0.5,19.3,1.3,29,1.8c11,0,22-0.1,33,0
			c8.8-0.1,17.7,0.4,26.5-0.6c7.1-0.8,14.2-0.1,21.3-0.8c7-0.7,14.2-0.3,21.1-1.7c4.3-0.9,8.7-1.5,13.1-1.8
			c9.3-0.6,18.5-1.8,27.7-3.4c8.5-1.5,17.2-2.5,25.6-4.5c29.8-5.6,59.4-13.1,87.7-24.2c16.3-5.5,31.5-13.5,46.8-21.5
			c9.5-4.8,18-11.2,26.3-17.7c16.7-13.2,31.2-30.5,36.6-51.5c1.5-6.2,1.7-12.6,1.5-18.9c4.9,12,9,24.3,13.4,36.5
			c1.3,4.2,3.7,8.1,4.7,12.4c1,4.2,3.3,7.9,5.1,11.8c1,4.3,2,8.7,3.1,13c1.7,10.6,0.1,21.5-3.3,31.6c-2.1,6.4-6.2,11.8-9.4,17.6
			c-4.1,7-9.7,12.9-15.6,18.3c-5.4,6.1-12,10.7-18.3,15.8c-5,4.1-11.1,6.7-16.3,10.6c-5.8,4.3-12.5,6.8-18.6,10.5
			c-4.2,2.8-9.5,3.4-13.7,6.2c-5.3,3.5-11.5,5.1-17.3,7.7c-9.3,3.5-18.6,6.9-28,10c-4.4,1.1-8.8,2.9-13.4,2.3
			c-0.1,0.4-0.3,1.3-0.3,1.7c-9.9,3.9-20.7,4.9-30.7,8.6c-8,1.5-16,3-23.9,5.1c-12.4,2-24.7,4.5-37.1,5.9
			c-9.2,0.8-18.2,3.3-27.5,3.7c-11.3,1.4-22.7,2.8-34.1,2.9c-6.6,1.1-13.4,0.6-20.1,1.7c-17.5,0.5-35.1-0.3-52.6,0.5
			c-10-0.9-20.1,0.4-30-0.8c-6.2-1-12.5,0-18.7-1.1c-4.1-0.7-8.3-0.3-12.5-0.6c-7.1-1-14.2-1.5-21.2-2.6c-8.5-0.3-17-1-25.3-2.7
			c-9.4-1.5-19-2.4-28.2-4.8c-3.2-0.8-6.4-0.9-9.6-1.4c-7.3-0.9-14.2-3.8-21.6-4.5c-11.7-2.7-23.2-6.1-34.8-9.1
			c-4.6-1.1-9.2-2.7-13.7-4.2c-11.2-3-21.8-7.5-32.7-11.4c-6.9-2.5-13.4-5.9-20-9c-11.2-4.5-21.5-11-31.8-17.2
			c-5.1-3.6-10.5-6.7-15.3-10.7c-4.3-3.7-9.3-6.6-13.1-10.9c-6.5-7.2-13.9-13.6-18.6-22.2c-1.5-2.6-3.7-5-3.6-8.2
			c-2-1-2.6-3.2-3.3-5.1c-1.2-3.5-3-6.8-3.4-10.6c-1.2-8.3-3.2-16.9-0.7-25.1c1.8-5.8,2.3-12.1,5.5-17.4c3.4-8.8,6.9-17.5,9.6-26.5
			C21,283.3,22.3,276.9,25,271.1z"/>
	</g>
	<g id="_x23_d7201aff">
		<path class="st3" d="M0,0h0.2c0,0.1-0.2,0.2-0.2,0.2V0z"/>
		<path class="st3" d="M377.6,336.3c-0.5,0-1.1,0-1.6,0c-2.1,0-4.3-0.1-6.4-0.1c-1.2,0-6,0-7.2,0c-3.4,0-7.4,0-11.4-0.2
			c-15.9-1-32.9-2.4-53.6-4.4c-3.7-0.7-7.5-1.3-11.1-1.8c-5.3-0.8-10.8-1.6-16.1-2.8c-2.2-0.5-4.5-0.9-6.7-1.2
			c-3.9-0.7-7.9-1.4-11.7-2.5c-4.1-1.2-8.4-2.4-12.4-3.5c-10.8-3-22-6.1-32.6-10.4c-15.5-5.9-29.9-13.4-42.9-22.2l-1.2-1
			c-8.1-6.7-16.4-13.6-22.5-22.4c-6.1-9.5-8.8-18-8.4-25.8c0.2-3.2,0.7-6.5,1.2-9.6c0.5-2.9,0.9-5.9,1.2-8.9
			c0.9-10.4,2.7-20.8,4.4-30.9l0.4-2.2c0.5-4.8,1.2-9.7,1.8-14.4c0.4-3.3,0.8-6.5,1.2-9.8c1.1-10.1,2.4-20.4,3.7-30.4
			c1.6-12.2,3.2-24.8,4.4-37.2l0.1-1.4l1.3,1.9l0,0.1c0.1,0.7,0.1,1.5,0.2,2.2c0.1,2.4,0.3,4.9,1.2,7.1
			c6.3,13.2,16.6,24.9,29.8,33.8c21.9,14.8,48.2,25.3,82.9,33c9.3,2.6,18.8,4.1,26.9,5.2c16.6,2.9,34.1,4.7,55.4,5.7
			c6,0.6,12,0.7,17,0.7c1.9,0,3.9,0,5.8,0c1.9,0,3.9,0,5.8,0c2.5,0,4.5,0,6.5,0.1c0.6,0,1.3,0,1.9,0c4.1,0,8.3-0.3,12.3-0.6
			c3.2-0.2,6.5-0.5,9.8-0.6c7-0.2,14-1.1,20.9-2l2.6-0.3c29.3-3.6,53.6-7.8,76.9-16.2c18.6-5.5,35.5-13.1,50.3-22.6l1-0.7
			c6.7-4.7,13.7-9.7,19.2-15.9c6-6.8,10.9-15.2,14.9-25.8l1,0.1c0.1,0.4,5.7,42.5,8.4,63.7c0.5,7.9,1.9,15.9,3.3,23.6
			c0.4,2,0.7,4,1.1,6.1c0.9,9.3,2.2,21.5,4.3,33.7c1.3,7.1,2.5,15.4,0.2,23.3c-4.6,15.6-15.7,26.7-24.1,33.3l-2.6,1.9
			c-7,5.2-14.2,10.6-22.3,14.3c-17.6,9.7-37.2,15.8-56.1,21.6l-0.3,0.1c-6.6,1.9-13.4,3.3-19.9,4.7c-3.6,0.8-7.3,1.5-10.9,2.4
			c-8.8,2-17.8,3.3-26.6,4.4l-3.3,0.4c-3.5,0.3-7.1,0.7-10.6,1.1c-10.9,1.2-22.2,2.4-33.3,2.4c-0.6,0-1.2,0-1.9,0
			c-3.6,0-7.2,0.3-10.7,0.5C384.9,336.1,381.2,336.3,377.6,336.3z"/>
		<path class="st3" d="M150.5,94.6l0.4,0.7c0.3,3.2,0.2,6.5,1.4,9.5c6.6,13.8,17.3,25.5,30,34c24.9,16.9,53.9,26.6,83.1,33.1
			c8.8,2.4,17.9,3.9,27,5.2c18.3,3.2,36.8,4.8,55.4,5.7c11.7,1.2,23.5,0.4,35.2,0.7c8,0.2,16-0.9,24-1.1c7.9-0.2,15.7-1.3,23.6-2.4
			c26-3.2,52.2-7.3,77-16.2c17.7-5.2,34.8-12.7,50.4-22.7c7.2-5.1,14.5-10.1,20.4-16.7c6.7-7.5,11.4-16.6,15-25.9
			c0,0,5.7,42.2,8.4,63.7c0.6,10,2.7,19.8,4.3,29.6c1.1,11.3,2.3,22.6,4.3,33.7c1.4,7.6,2.4,15.6,0.2,23.1
			c-3.9,13.3-13.1,24.6-24,33c-7.9,5.9-15.8,12-24.8,16.2c-17.7,9.8-37.1,15.7-56.3,21.7c-10.1,2.9-20.5,4.7-30.8,7
			c-9.8,2.3-19.9,3.5-29.9,4.9c-14.6,1.4-29.2,3.5-43.8,3.5c-8.4-0.2-16.6,1.2-25,1c-8.3-0.2-16.6,0.1-25-0.2
			c-17.9-1.1-35.7-2.6-53.5-4.4c-9-1.7-18.2-2.6-27.2-4.6c-6.1-1.3-12.3-1.9-18.3-3.7c-15.1-4.5-30.4-8.1-45-13.9
			c-15-5.7-29.5-13.1-42.8-22.2c-8.5-7-17.2-14.1-23.6-23.3c-4.8-7.6-8.8-16.3-8.3-25.5c0.4-6.2,1.9-12.3,2.4-18.5
			c1-11.1,2.9-22.1,4.7-33.1c0.9-8.1,2-16.1,3-24.2C144.8,139.6,148.4,117.1,150.5,94.6z"/>
	</g>
</g>
<g id="Layer_2">
</g>
</svg>
